<?xml version="1.0" encoding="UTF-8" standalone="no"?>
<!DOCTYPE svg PUBLIC "-//W3C//DTD SVG 1.1//EN" "http://www.w3.org/Graphics/SVG/1.1/DTD/svg11.dtd">
<svg version="1.1" xmlns="http://www.w3.org/2000/svg" xmlns:xlink="http://www.w3.org/1999/xlink" preserveAspectRatio="xMidYMid meet" viewBox="0 0 253.8 60" width="253.8" height="60"><defs><path d="M57.42 50.94L54.84 46.42L50.32 38.49L9.68 38.49L7.09 43.02L0 55.47L8.56 55.47L51.44 55.47L60 55.47L57.42 50.94Z" id="boLZcj1kY"></path><path d="M23.64 38.49C19.74 32.84 15.48 24.86 15.48 16.98C15.48 7.61 21.98 0 30 0C38.02 0 44.52 7.61 44.52 16.98C44.52 24.86 40.26 32.84 36.36 38.49C34.74 40.82 33.19 42.77 32.03 44.15C32.03 44.15 32.02 44.15 32.02 44.15C30.8 45.59 30 46.42 30 46.42C30 46.42 29.2 45.59 27.97 44.15C26.81 42.77 25.26 40.82 23.64 38.49Z" id="c29kfROtQX"></path><path d="M57.42 50.94L51.62 50.94L51.61 50.94L47.74 46.42L54.84 46.42L57.42 50.94Z" id="fCdc9cAUG"></path><path d="M35.9 48.68L40.09 44.15L45.36 54.34L22.38 54.34L18.51 49.81L35.9 48.68Z" id="b10FME0LNg"></path><path d="M57.42 50.94L60 55.47L51.44 55.47L49.59 50.94L57.42 50.94Z" id="c1fxwfqnuI"></path><path d="M32.02 44.15C32.02 44.15 32.03 44.15 32.03 44.15L40.09 44.15L41.49 49.81L18.51 49.81L19.91 44.15C24.74 44.15 27.43 44.15 27.97 44.15C29.2 45.59 30 46.42 30 46.42C30.4 45.96 30.8 45.59 32.02 44.15Z" id="oPmvGl2Pd"></path><path d="M13.64 43.02L8.56 55.47L0 55.47L7.09 43.02L13.64 43.02Z" id="cqLhyvyei"></path><path d="M17.51 47.55L14.28 55.47L8.56 55.47L13.64 43.02L17.51 47.55Z" id="a21VOdb6dO"></path><path d="M60 55.47L60 60L0 60L0 55.47L8.56 55.47L51.44 55.47L60 55.47Z" id="aXPTDVHDu"></path><path d="M54.84 46.42L47.75 46.42L47.74 46.42L44.52 38.49L50.32 38.49L54.84 46.42Z" id="a91Dql4vM"></path><path d="M23.23 23.78C23.23 22.87 23.23 15.63 23.23 14.72C23.23 14.09 23.66 13.59 24.2 13.59C24.73 13.59 25.17 14.09 25.17 14.72C25.17 15.63 25.17 22.87 25.17 23.78C25.17 24.41 24.73 24.91 24.2 24.91C23.66 24.91 23.23 24.41 23.23 23.78Z" id="b14eZ0r36w"></path><path d="M26.13 23.78C26.13 22.87 26.13 15.63 26.13 14.72C26.13 14.09 26.57 13.59 27.1 13.59C27.64 13.59 28.07 14.09 28.07 14.72C28.07 15.63 28.07 22.87 28.07 23.78C28.07 24.41 27.64 24.91 27.1 24.91C26.57 24.91 26.13 24.41 26.13 23.78Z" id="aMRa2vQvc"></path><path d="M31.94 23.78C31.94 22.87 31.94 15.63 31.94 14.72C31.94 14.09 32.38 13.59 32.91 13.59C33.45 13.59 33.88 14.09 33.88 14.72C33.88 15.63 33.88 22.87 33.88 23.78C33.88 24.41 33.45 24.91 32.91 24.91C32.38 24.91 31.94 24.41 31.94 23.78Z" id="dUsOQhYgK"></path><path d="M29.04 23.78C29.04 22.87 29.04 15.63 29.04 14.72C29.04 14.09 29.47 13.59 30.01 13.59C30.54 13.59 30.98 14.09 30.98 14.72C30.98 15.63 30.98 22.87 30.98 23.78C30.98 24.41 30.54 24.91 30.01 24.91C29.47 24.91 29.04 24.41 29.04 23.78Z" id="a3SfSjMGNb"></path><path d="M34.85 23.78C34.85 22.87 34.85 15.63 34.85 14.72C34.85 14.09 35.28 13.59 35.82 13.59C36.35 13.59 36.78 14.09 36.78 14.72C36.78 15.63 36.78 22.87 36.78 23.78C36.78 24.41 36.35 24.91 35.82 24.91C35.28 24.91 34.85 24.41 34.85 23.78Z" id="a8U9XoyMwM"></path><path d="M23.23 13.58C24.59 13.58 35.43 13.58 36.79 13.58C37.32 13.58 37.76 14.09 37.76 14.72C37.76 15.34 37.32 15.85 36.79 15.85C35.43 15.85 24.59 15.85 23.23 15.85C22.69 15.85 22.26 15.34 22.26 14.72C22.26 14.09 22.69 13.58 23.23 13.58Z" id="e2FXvCPkXL"></path><path d="M37.75 12.45L37.75 14.72L35.82 14.72L32.91 14.72L30.01 14.72L27.11 14.72L24.2 14.72L22.27 14.72L22.27 12.45L30.02 7.92L37.75 12.45Z" id="b2nsoK1lL"></path><path d="M36.78 23.78C37.32 23.78 37.75 24.29 37.75 24.92C37.75 25.03 37.75 25.94 37.75 26.05C37.75 26.67 37.32 27.18 36.78 27.18C35.43 27.18 24.59 27.18 23.24 27.18C22.7 27.18 22.27 26.67 22.27 26.05C22.27 25.94 22.27 25.03 22.27 24.92C22.27 24.29 22.7 23.78 23.24 23.78C23.36 23.78 24.01 23.78 25.17 23.78L26.14 23.78L28.07 23.78L29.04 23.78L30.98 23.78L31.95 23.78L33.88 23.78L34.85 23.78C35.88 23.78 36.53 23.78 36.78 23.78Z" id="a67H8HBd92"></path><path d="M90.25 22.2C89.1 22.62 87.82 22.82 86.41 22.82C84.93 22.82 83.64 22.5 82.52 21.86C81.41 21.21 80.55 20.28 79.94 19.05C79.34 17.82 79.03 16.38 79.02 14.73C79.02 14.61 79.02 13.68 79.02 13.57C79.02 11.86 79.3 10.39 79.87 9.15C80.45 7.9 81.28 6.94 82.36 6.29C83.44 5.62 84.71 5.29 86.16 5.29C88.19 5.29 89.77 5.78 90.91 6.74C92.05 7.71 92.73 9.11 92.94 10.95C92.6 10.95 89.86 10.95 89.52 10.95C89.36 9.98 89.01 9.26 88.47 8.81C87.94 8.35 87.21 8.13 86.27 8.13C85.07 8.13 84.16 8.58 83.54 9.48C82.91 10.37 82.6 11.71 82.59 13.48C82.59 13.59 82.59 14.46 82.59 14.57C82.59 16.36 82.93 17.71 83.61 18.63C84.29 19.54 85.29 20 86.6 20C87.92 20 88.86 19.72 89.42 19.16C89.42 18.96 89.42 17.98 89.42 16.21L86.22 16.21L86.22 13.62L92.94 13.62L92.94 20.43C91.92 21.33 91.02 21.92 90.25 22.2ZM96.02 22.59L96.02 5.53L99.54 5.53L99.54 22.59L96.02 22.59ZM110.95 16.59C110.48 16.23 109.64 15.85 108.42 15.46C107.2 15.07 106.23 14.67 105.52 14.29C103.59 13.24 102.62 11.83 102.62 10.06C102.62 9.14 102.87 8.32 103.39 7.6C103.91 6.87 104.66 6.31 105.63 5.9C106.61 5.49 107.7 5.29 108.91 5.29C110.13 5.29 111.21 5.51 112.17 5.96C113.12 6.4 113.86 7.02 114.38 7.82C114.91 8.63 115.18 9.54 115.18 10.57C114.83 10.57 112.02 10.57 111.66 10.57C111.66 9.78 111.42 9.18 110.93 8.75C110.43 8.31 109.74 8.09 108.85 8.09C107.99 8.09 107.32 8.28 106.85 8.64C106.37 9 106.13 9.48 106.13 10.07C106.13 10.63 106.41 11.09 106.96 11.47C107.53 11.84 108.35 12.19 109.44 12.52C111.44 13.12 112.89 13.87 113.81 14.76C114.72 15.65 115.18 16.76 115.18 18.09C115.18 19.57 114.62 20.73 113.5 21.57C112.39 22.41 110.88 22.82 108.99 22.82C107.68 22.82 106.48 22.58 105.41 22.11C104.33 21.62 103.5 20.96 102.93 20.13C102.37 19.29 102.09 18.32 102.09 17.22C102.44 17.22 105.26 17.22 105.62 17.22C105.62 19.1 106.74 20.05 108.99 20.05C109.83 20.05 110.48 19.88 110.95 19.54C111.42 19.2 111.65 18.72 111.65 18.11C111.65 17.45 111.42 16.94 110.95 16.59ZM130.48 16.76C130.48 18.63 129.9 20.11 128.73 21.19C127.56 22.28 125.97 22.82 123.95 22.82C121.95 22.82 120.37 22.3 119.2 21.24C118.03 20.19 117.43 18.74 117.41 16.89C117.41 16.14 117.41 12.35 117.41 5.53L120.92 5.53C120.92 12.28 120.92 16.04 120.92 16.79C120.92 17.91 121.19 18.72 121.72 19.24C122.26 19.74 123 20 123.95 20C125.92 20 126.93 18.96 126.96 16.88C126.96 16.12 126.96 12.34 126.96 5.53L130.48 5.53C130.48 12.27 130.48 16.02 130.48 16.76ZM142.34 17.9L146.7 5.53L151.32 5.53L151.32 22.59L147.79 22.59L147.79 17.92L148.14 9.87L143.54 22.59L141.12 22.59L136.53 9.89L136.88 17.92L136.88 22.59L133.37 22.59L133.37 5.53L137.96 5.53L142.34 17.9Z" id="ei3JqzXXt"></path><path d="M83.39 37.57C82.84 37.78 82.22 37.89 81.52 37.88C80.96 37.87 80.48 37.74 80.06 37.49C79.64 37.24 79.31 36.88 79.07 36.41C78.84 35.94 78.7 35.41 78.66 34.82C78.64 34.36 78.69 33.73 78.83 32.93C78.98 32.14 79.23 31.45 79.58 30.88C79.94 30.3 80.38 29.86 80.91 29.55C81.45 29.25 82.06 29.1 82.75 29.11C83.54 29.13 84.17 29.36 84.64 29.82C85.11 30.27 85.38 30.91 85.45 31.74C85.34 31.74 84.47 31.74 84.36 31.74C84.32 31.2 84.15 30.78 83.87 30.5C83.59 30.21 83.2 30.05 82.71 30.04C81.97 30.01 81.36 30.27 80.86 30.83C80.37 31.38 80.04 32.19 79.89 33.26C79.88 33.32 79.84 33.59 79.78 34.08C79.77 34.35 79.76 34.5 79.76 34.53C79.76 35.3 79.92 35.89 80.23 36.31C80.55 36.73 80.99 36.94 81.56 36.95C82.39 36.97 83.04 36.77 83.53 36.34C83.55 36.22 83.67 35.58 83.88 34.43L81.96 34.43L82.12 33.51L85.12 33.51L84.63 36.64C84.17 37.11 83.75 37.42 83.39 37.57ZM86.98 37.01C86.53 36.44 86.35 35.71 86.42 34.83C86.42 34.81 86.44 34.6 86.45 34.58C86.51 33.95 86.7 33.38 87 32.86C87.31 32.34 87.69 31.95 88.13 31.69C88.57 31.42 89.04 31.29 89.56 31.3C90.21 31.32 90.72 31.54 91.09 31.95C91.46 32.37 91.67 32.94 91.7 33.65C91.71 33.91 91.7 34.16 91.68 34.42C91.67 34.45 91.65 34.61 91.61 34.9C89.13 34.9 87.75 34.9 87.47 34.9C87.4 35.48 87.49 35.96 87.75 36.37C88.01 36.77 88.4 36.98 88.92 36.99C89.54 37.01 90.12 36.73 90.65 36.15C90.71 36.2 91.2 36.61 91.26 36.67C91 37.05 90.65 37.35 90.23 37.57C89.81 37.78 89.35 37.89 88.83 37.88C88.04 37.86 87.42 37.57 86.98 37.01ZM88.36 32.63C88.03 32.94 87.77 33.4 87.58 34.01C87.79 34.01 88.81 34.01 90.66 34.02C90.68 33.96 90.69 33.93 90.69 33.92C90.75 33.43 90.67 33.02 90.45 32.7C90.23 32.37 89.91 32.2 89.5 32.19C89.07 32.18 88.68 32.33 88.36 32.63ZM97.2 31.74C97.58 32.02 97.86 32.41 98.04 32.9C98.22 33.4 98.28 33.94 98.22 34.52C98.22 34.53 98.21 34.64 98.21 34.65C98.14 35.27 97.95 35.83 97.66 36.33C97.37 36.82 96.99 37.21 96.52 37.49C96.06 37.76 95.55 37.89 94.99 37.88C94.47 37.87 94.01 37.73 93.63 37.44C93.25 37.16 92.97 36.78 92.8 36.3C92.62 35.81 92.56 35.28 92.61 34.7C92.67 34.04 92.85 33.45 93.14 32.93C93.44 32.4 93.82 32 94.29 31.71C94.75 31.43 95.27 31.29 95.83 31.3C96.36 31.31 96.82 31.46 97.2 31.74ZM93.68 35.47C93.71 35.93 93.85 36.3 94.09 36.57C94.32 36.85 94.64 36.99 95.04 37C95.39 37.01 95.71 36.93 96.01 36.74C96.3 36.55 96.55 36.27 96.76 35.9C96.96 35.52 97.09 35.11 97.15 34.65C97.18 34.29 97.19 33.99 97.17 33.74C97.12 33.27 96.98 32.9 96.74 32.62C96.5 32.35 96.19 32.2 95.79 32.19C95.24 32.18 94.78 32.39 94.4 32.83C94.01 33.27 93.78 33.85 93.69 34.57C93.69 34.58 93.68 34.62 93.68 34.7C93.66 35.04 93.66 35.29 93.68 35.47ZM99.88 32.78C100.16 32.27 100.5 31.89 100.9 31.65C101.3 31.4 101.74 31.29 102.22 31.3C102.95 31.31 103.51 31.59 103.88 32.13C103.9 32.08 103.97 31.85 104.09 31.42L105.07 31.42C104.43 35.14 104.08 37.21 104.01 37.63C103.9 38.44 103.57 39.08 103.03 39.57C102.48 40.05 101.81 40.29 101.02 40.26C100.59 40.26 100.18 40.15 99.78 39.96C99.39 39.76 99.08 39.5 98.86 39.16C98.92 39.09 99.4 38.57 99.46 38.51C99.84 39.07 100.35 39.36 100.98 39.38C101.48 39.39 101.91 39.25 102.25 38.96C102.61 38.66 102.84 38.24 102.95 37.69C102.96 37.63 103.06 37.18 103.07 37.13C102.55 37.64 101.95 37.89 101.26 37.88C100.86 37.87 100.52 37.76 100.23 37.56C99.94 37.36 99.71 37.07 99.55 36.69C99.39 36.31 99.3 35.88 99.29 35.41C99.28 35.18 99.29 34.9 99.32 34.58C99.42 33.89 99.6 33.29 99.88 32.78ZM100.64 36.48C100.84 36.79 101.15 36.95 101.57 36.96C102.2 36.98 102.75 36.67 103.2 36.03C103.25 35.74 103.65 33.41 103.7 33.12C103.47 32.54 103.04 32.24 102.43 32.22C101.86 32.2 101.38 32.44 101.01 32.92C100.64 33.41 100.43 34.06 100.36 34.88C100.36 34.9 100.36 35 100.35 35.18C100.41 35.84 100.5 36.28 100.64 36.48ZM109.06 32.34C108.38 32.34 107.84 32.64 107.45 33.26C107.4 33.56 107.14 35.06 106.67 37.76L105.61 37.76L106.71 31.42L107.74 31.42C107.64 31.86 107.59 32.1 107.58 32.15C108.03 31.56 108.56 31.28 109.17 31.29C109.3 31.29 109.46 31.32 109.67 31.38C109.66 31.45 109.62 31.78 109.55 32.39C109.26 32.36 109.09 32.34 109.06 32.34ZM113.21 37.43C113.21 37.39 113.23 37.13 113.23 37.09C112.65 37.63 112.03 37.89 111.38 37.88C110.82 37.87 110.36 37.69 110.01 37.35C109.66 37 109.51 36.57 109.54 36.05C109.58 35.38 109.87 34.86 110.42 34.48C110.97 34.1 111.69 33.91 112.58 33.91C112.66 33.91 113.03 33.91 113.69 33.92C113.73 33.62 113.76 33.45 113.76 33.41C113.8 33.03 113.73 32.74 113.54 32.52C113.36 32.29 113.08 32.18 112.71 32.17C112.34 32.16 112.02 32.25 111.74 32.44C111.46 32.62 111.29 32.87 111.23 33.17C111.12 33.17 110.27 33.18 110.16 33.18C110.2 32.81 110.34 32.48 110.6 32.19C110.85 31.91 111.18 31.68 111.58 31.53C111.97 31.37 112.39 31.29 112.81 31.3C113.47 31.31 113.99 31.52 114.35 31.9C114.72 32.28 114.87 32.79 114.82 33.43C114.78 33.64 114.61 34.69 114.3 36.57C114.28 36.84 114.27 36.99 114.27 37.02C114.26 37.24 114.29 37.45 114.34 37.66C114.34 37.67 114.34 37.7 114.33 37.76L113.25 37.76C113.22 37.61 113.21 37.5 113.21 37.43ZM112.55 36.7C112.85 36.53 113.12 36.29 113.33 35.99C113.35 35.9 113.43 35.47 113.56 34.69C113.08 34.68 112.81 34.68 112.76 34.68C112.09 34.68 111.58 34.78 111.22 35C110.87 35.21 110.67 35.51 110.62 35.89C110.59 36.19 110.65 36.44 110.83 36.64C111 36.83 111.26 36.93 111.59 36.94C111.93 36.95 112.25 36.87 112.55 36.7ZM120.99 36.36C120.72 36.88 120.39 37.26 119.99 37.52C119.59 37.77 119.15 37.9 118.67 37.88C117.93 37.87 117.37 37.62 116.98 37.14C116.94 37.34 116.75 38.36 116.41 40.2L115.35 40.2L116.87 31.42L117.83 31.42C117.76 31.84 117.72 32.08 117.72 32.12C118.24 31.56 118.87 31.29 119.6 31.3C120.21 31.32 120.68 31.54 121.02 31.98C121.36 32.41 121.54 33.01 121.56 33.77C121.56 34.02 121.55 34.26 121.53 34.5C121.53 34.51 121.52 34.55 121.51 34.62C121.35 35.44 121.17 36.02 120.99 36.36ZM120.5 34.01C120.5 33.44 120.39 33 120.17 32.7C119.96 32.39 119.64 32.23 119.23 32.22C118.62 32.2 118.09 32.49 117.65 33.09C117.59 33.4 117.17 35.83 117.11 36.13C117.35 36.69 117.78 36.98 118.4 37C118.92 37.01 119.37 36.81 119.74 36.38C120.11 35.96 120.35 35.33 120.47 34.5C120.48 34.4 120.5 34.05 120.5 34.01ZM126.27 31.31C126.86 31.32 127.3 31.52 127.58 31.93C127.87 32.32 127.98 32.88 127.91 33.61C127.86 33.88 127.63 35.27 127.21 37.76L126.15 37.76C126.57 35.26 126.8 33.87 126.85 33.59C126.87 33.4 126.88 33.22 126.86 33.06C126.79 32.51 126.47 32.23 125.89 32.22C125.24 32.2 124.68 32.54 124.21 33.24C124.16 33.54 123.9 35.05 123.43 37.76L122.37 37.76L123.93 28.76L124.99 28.76L124.35 32.19C125.15 31.59 125.78 31.3 126.27 31.31ZM128.93 37.76L130.03 31.42L131.09 31.42L129.99 37.76L128.93 37.76ZM131.3 29.27C131.43 29.38 131.49 29.53 131.49 29.72C131.48 29.91 131.42 30.06 131.3 30.17C131.19 30.29 131.04 30.35 130.86 30.36C130.68 30.37 130.53 30.32 130.41 30.2C130.29 30.09 130.23 29.94 130.24 29.76C130.24 29.57 130.3 29.42 130.41 29.3C130.53 29.18 130.68 29.11 130.86 29.11C131.04 29.1 131.19 29.15 131.3 29.27ZM135.42 36.67C135.73 36.44 135.93 36.14 136.02 35.77C136.12 35.77 136.92 35.76 137.02 35.76C136.96 36.16 136.8 36.52 136.54 36.85C136.29 37.18 135.96 37.44 135.56 37.62C135.17 37.8 134.77 37.89 134.35 37.88C133.82 37.87 133.38 37.73 133.01 37.47C132.65 37.2 132.38 36.83 132.21 36.35C132.04 35.87 131.98 35.33 132.03 34.73C132.03 34.7 132.06 34.47 132.06 34.44C132.13 33.83 132.31 33.28 132.59 32.8C132.87 32.32 133.24 31.95 133.7 31.69C134.15 31.42 134.65 31.29 135.2 31.3C135.86 31.32 136.39 31.54 136.79 31.97C137.19 32.4 137.39 32.95 137.39 33.61C137.29 33.61 136.5 33.6 136.4 33.6C136.39 33.19 136.27 32.85 136.05 32.6C135.83 32.34 135.53 32.2 135.15 32.19C134.6 32.18 134.14 32.38 133.77 32.8C133.41 33.23 133.18 33.82 133.09 34.57C133.09 34.59 133.08 34.71 133.07 34.73C133.05 34.98 133.05 35.23 133.06 35.5C133.09 35.96 133.22 36.32 133.45 36.58C133.68 36.85 134 36.99 134.4 37C134.78 37.01 135.12 36.9 135.42 36.67ZM141.71 37.43C141.71 37.39 141.73 37.13 141.73 37.09C141.15 37.63 140.53 37.89 139.88 37.88C139.32 37.87 138.86 37.69 138.51 37.35C138.16 37 138.01 36.57 138.04 36.05C138.08 35.38 138.37 34.86 138.92 34.48C139.47 34.1 140.19 33.91 141.08 33.91C141.16 33.91 141.53 33.91 142.19 33.92C142.23 33.62 142.26 33.45 142.26 33.41C142.3 33.03 142.23 32.74 142.04 32.52C141.86 32.29 141.58 32.18 141.21 32.17C140.84 32.16 140.52 32.25 140.24 32.44C139.96 32.62 139.79 32.87 139.73 33.17C139.62 33.17 138.77 33.18 138.66 33.18C138.7 32.81 138.84 32.48 139.1 32.19C139.35 31.91 139.68 31.68 140.08 31.53C140.47 31.37 140.89 31.29 141.31 31.3C141.97 31.31 142.49 31.52 142.85 31.9C143.22 32.28 143.37 32.79 143.32 33.43C143.28 33.64 143.11 34.69 142.8 36.57C142.78 36.84 142.77 36.99 142.77 37.02C142.76 37.24 142.79 37.45 142.84 37.66C142.84 37.67 142.84 37.7 142.83 37.76L141.75 37.76C141.72 37.61 141.71 37.5 141.71 37.43ZM141.05 36.7C141.35 36.53 141.62 36.29 141.83 35.99C141.85 35.9 141.93 35.47 142.06 34.69C141.58 34.68 141.31 34.68 141.26 34.68C140.59 34.68 140.08 34.78 139.72 35C139.37 35.21 139.17 35.51 139.12 35.89C139.09 36.19 139.15 36.44 139.33 36.64C139.5 36.83 139.76 36.93 140.09 36.94C140.43 36.95 140.75 36.87 141.05 36.7ZM144.37 37.76L145.92 28.76L146.98 28.76L145.42 37.76L144.37 37.76ZM150.34 37.76L151.82 29.23L152.92 29.23L151.44 37.76L150.34 37.76ZM155.27 32.22C155.84 31.59 156.49 31.29 157.21 31.3C157.81 31.32 158.25 31.53 158.54 31.93C158.82 32.32 158.93 32.88 158.86 33.61C158.81 33.88 158.58 35.27 158.16 37.76L157.1 37.76C157.52 35.26 157.75 33.87 157.8 33.59C157.82 33.4 157.83 33.22 157.81 33.06C157.74 32.51 157.42 32.23 156.84 32.22C156.2 32.21 155.64 32.55 155.16 33.24C155.11 33.54 154.85 35.05 154.38 37.76L153.32 37.76L154.42 31.42L155.42 31.42C155.33 31.9 155.28 32.16 155.27 32.22ZM161.28 32.26L160.3 32.26L160.44 31.42L161.42 31.42C161.48 30.97 161.51 30.72 161.52 30.67C161.62 30.03 161.87 29.54 162.26 29.18C162.67 28.8 163.19 28.62 163.83 28.63C164.03 28.63 164.28 28.66 164.59 28.73C164.57 28.81 164.47 29.52 164.46 29.61C164.27 29.57 164.08 29.55 163.89 29.54C163.52 29.54 163.22 29.66 162.99 29.89C162.77 30.11 162.62 30.42 162.57 30.79C162.56 30.84 162.53 31.05 162.48 31.42L163.79 31.42L163.64 32.26L162.33 32.26L161.37 37.76L160.31 37.76L161.28 32.26ZM168.79 31.74C169.17 32.02 169.45 32.41 169.62 32.9C169.81 33.4 169.87 33.94 169.81 34.52C169.81 34.53 169.8 34.64 169.8 34.65C169.73 35.27 169.54 35.83 169.25 36.33C168.96 36.82 168.58 37.21 168.11 37.49C167.65 37.76 167.14 37.89 166.58 37.88C166.06 37.87 165.6 37.73 165.22 37.44C164.84 37.16 164.56 36.78 164.39 36.3C164.21 35.81 164.15 35.28 164.2 34.7C164.26 34.04 164.44 33.45 164.73 32.93C165.03 32.4 165.41 32 165.87 31.71C166.34 31.43 166.86 31.29 167.42 31.3C167.95 31.31 168.41 31.46 168.79 31.74ZM165.27 35.47C165.3 35.93 165.44 36.3 165.68 36.57C165.91 36.85 166.23 36.99 166.62 37C166.98 37.01 167.3 36.93 167.6 36.74C167.89 36.55 168.14 36.27 168.35 35.9C168.55 35.52 168.68 35.11 168.74 34.65C168.77 34.29 168.78 33.99 168.76 33.74C168.71 33.27 168.57 32.9 168.33 32.62C168.09 32.35 167.78 32.2 167.38 32.19C166.83 32.18 166.37 32.39 165.99 32.83C165.6 33.27 165.37 33.85 165.28 34.57C165.28 34.58 165.27 34.62 165.27 34.7C165.25 35.04 165.25 35.29 165.27 35.47ZM174.05 32.34C173.37 32.34 172.83 32.64 172.44 33.26C172.39 33.56 172.13 35.06 171.66 37.76L170.6 37.76L171.7 31.42L172.73 31.42C172.64 31.86 172.58 32.1 172.57 32.15C173.02 31.56 173.55 31.28 174.16 31.29C174.29 31.29 174.46 31.32 174.66 31.38C174.66 31.45 174.62 31.78 174.55 32.39C174.25 32.36 174.08 32.34 174.05 32.34ZM176.56 32.12C177.09 31.56 177.73 31.29 178.48 31.3C178.89 31.31 179.23 31.4 179.5 31.58C179.78 31.76 179.98 32 180.08 32.32C180.68 31.63 181.38 31.29 182.19 31.3C182.82 31.32 183.29 31.53 183.59 31.94C183.89 32.35 184 32.9 183.92 33.6C183.88 33.87 183.64 35.26 183.22 37.76L182.17 37.76C182.58 35.25 182.81 33.86 182.86 33.58C182.88 33.38 182.88 33.19 182.86 33.03C182.79 32.5 182.44 32.22 181.82 32.21C181.43 32.2 181.08 32.33 180.76 32.58C180.45 32.82 180.25 33.15 180.16 33.55C180.11 33.83 179.87 35.23 179.44 37.76L178.37 37.76C178.79 35.26 179.03 33.87 179.08 33.59C179.13 33.16 179.06 32.82 178.88 32.59C178.7 32.35 178.42 32.23 178.03 32.22C177.37 32.21 176.85 32.51 176.46 33.13C176.4 33.44 176.14 34.98 175.65 37.76L174.59 37.76L175.7 31.42L176.69 31.42C176.61 31.84 176.57 32.08 176.56 32.12ZM188.7 37.43C188.7 37.39 188.72 37.13 188.72 37.09C188.14 37.63 187.52 37.89 186.87 37.88C186.31 37.87 185.85 37.69 185.5 37.35C185.16 37 185 36.57 185.03 36.05C185.07 35.38 185.36 34.86 185.91 34.48C186.46 34.1 187.18 33.91 188.08 33.91C188.15 33.91 188.52 33.91 189.18 33.92C189.23 33.62 189.25 33.45 189.25 33.41C189.29 33.03 189.22 32.74 189.03 32.52C188.85 32.29 188.57 32.18 188.2 32.17C187.84 32.16 187.51 32.25 187.23 32.44C186.95 32.62 186.78 32.87 186.72 33.17C186.62 33.17 185.76 33.18 185.66 33.18C185.69 32.81 185.84 32.48 186.09 32.19C186.34 31.91 186.67 31.68 187.07 31.53C187.47 31.37 187.88 31.29 188.3 31.3C188.96 31.31 189.48 31.52 189.85 31.9C190.21 32.28 190.37 32.79 190.31 33.43C190.27 33.64 190.1 34.69 189.79 36.57C189.78 36.84 189.77 36.99 189.76 37.02C189.76 37.24 189.78 37.45 189.83 37.66C189.83 37.67 189.83 37.7 189.82 37.76L188.74 37.76C188.72 37.61 188.7 37.5 188.7 37.43ZM188.04 36.7C188.35 36.53 188.61 36.29 188.83 35.99C188.84 35.9 188.92 35.47 189.05 34.69C188.57 34.68 188.31 34.68 188.25 34.68C187.58 34.68 187.07 34.78 186.72 35C186.36 35.21 186.16 35.51 186.11 35.89C186.08 36.19 186.15 36.44 186.32 36.64C186.49 36.83 186.75 36.93 187.08 36.94C187.42 36.95 187.74 36.87 188.04 36.7ZM193.79 31.42L194.95 31.42L194.8 32.26L193.65 32.26C193.26 34.63 193.04 35.94 192.99 36.2C192.98 36.3 192.98 36.4 192.99 36.48C193.01 36.79 193.18 36.94 193.48 36.94C193.61 36.94 193.78 36.92 194 36.88C193.99 36.97 193.93 37.68 193.92 37.77C193.66 37.84 193.41 37.87 193.14 37.87C192.72 37.86 192.41 37.71 192.19 37.41C191.98 37.11 191.9 36.7 191.95 36.19C191.99 35.92 192.21 34.61 192.59 32.26L191.47 32.26L191.62 31.42L192.74 31.42L193.01 29.89L194.06 29.89L193.79 31.42ZM195.22 37.76L196.33 31.42L197.38 31.42L196.28 37.76L195.22 37.76ZM197.6 29.27C197.72 29.38 197.78 29.53 197.78 29.72C197.77 29.91 197.71 30.06 197.6 30.17C197.48 30.29 197.34 30.35 197.15 30.36C196.97 30.37 196.82 30.32 196.7 30.2C196.58 30.09 196.53 29.94 196.53 29.76C196.53 29.57 196.59 29.42 196.71 29.3C196.82 29.18 196.97 29.11 197.15 29.11C197.33 29.1 197.48 29.15 197.6 29.27ZM202.9 31.74C203.28 32.02 203.56 32.41 203.74 32.9C203.92 33.4 203.98 33.94 203.93 34.52C203.92 34.53 203.92 34.64 203.91 34.65C203.84 35.27 203.66 35.83 203.36 36.33C203.07 36.82 202.69 37.21 202.23 37.49C201.76 37.76 201.25 37.89 200.7 37.88C200.17 37.87 199.71 37.73 199.33 37.44C198.95 37.16 198.68 36.78 198.5 36.3C198.32 35.81 198.26 35.28 198.31 34.7C198.37 34.04 198.55 33.45 198.85 32.93C199.14 32.4 199.52 32 199.99 31.71C200.46 31.43 200.97 31.29 201.53 31.3C202.07 31.31 202.52 31.46 202.9 31.74ZM199.38 35.47C199.42 35.93 199.55 36.3 199.79 36.57C200.03 36.85 200.34 36.99 200.74 37C201.09 37.01 201.41 36.93 201.71 36.74C202.01 36.55 202.26 36.27 202.46 35.9C202.66 35.52 202.79 35.11 202.85 34.65C202.88 34.29 202.89 33.99 202.87 33.74C202.82 33.27 202.68 32.9 202.44 32.62C202.2 32.35 201.89 32.2 201.49 32.19C200.95 32.18 200.48 32.39 200.1 32.83C199.72 33.27 199.48 33.85 199.39 34.57C199.39 34.58 199.39 34.62 199.38 34.7C199.36 35.04 199.36 35.29 199.38 35.47ZM206.67 32.22C207.24 31.59 207.89 31.29 208.61 31.3C209.21 31.32 209.65 31.53 209.94 31.93C210.22 32.32 210.33 32.88 210.25 33.61C210.21 33.88 209.98 35.27 209.56 37.76L208.5 37.76C208.92 35.26 209.15 33.87 209.2 33.59C209.22 33.4 209.22 33.22 209.2 33.06C209.14 32.51 208.82 32.23 208.24 32.22C207.6 32.21 207.04 32.55 206.56 33.24C206.51 33.54 206.25 35.05 205.78 37.76L204.72 37.76L205.82 31.42L206.82 31.42C206.73 31.9 206.68 32.16 206.67 32.22ZM218.12 34.19C218.06 34.17 217.72 34.05 217.11 33.82C216.9 33.74 216.79 33.69 216.77 33.68C215.63 33.16 215.1 32.43 215.17 31.49C215.21 31.01 215.37 30.6 215.66 30.23C215.94 29.87 216.32 29.59 216.79 29.39C217.26 29.19 217.76 29.1 218.29 29.11C218.81 29.12 219.27 29.24 219.67 29.46C220.08 29.68 220.38 29.98 220.6 30.38C220.81 30.77 220.9 31.21 220.88 31.7C220.77 31.7 219.88 31.7 219.77 31.7C219.81 31.17 219.69 30.77 219.42 30.48C219.14 30.19 218.75 30.05 218.25 30.04C217.71 30.03 217.26 30.16 216.9 30.41C216.54 30.67 216.34 31.02 216.28 31.47C216.2 32.05 216.56 32.49 217.35 32.79C217.41 32.81 217.7 32.92 218.23 33.1C218.49 33.22 218.64 33.28 218.67 33.29C219.77 33.8 220.28 34.55 220.2 35.55C220.15 36.03 219.99 36.45 219.71 36.8C219.43 37.15 219.05 37.42 218.56 37.61C218.08 37.8 217.56 37.89 217.01 37.88C216.47 37.87 215.98 37.76 215.54 37.54C215.1 37.31 214.76 37 214.53 36.61C214.3 36.22 214.2 35.78 214.23 35.28C214.34 35.28 215.22 35.29 215.33 35.29C215.29 35.8 215.43 36.2 215.74 36.5C216.05 36.8 216.49 36.95 217.06 36.96C217.62 36.97 218.09 36.84 218.46 36.59C218.82 36.34 219.04 35.99 219.1 35.56C219.18 34.94 218.86 34.48 218.12 34.19ZM225.64 31.42L226.81 31.42C224.56 35.86 223.3 38.32 223.05 38.82C222.53 39.84 221.85 40.35 221.03 40.34C220.89 40.34 220.68 40.3 220.4 40.23C220.4 40.18 220.43 39.88 220.49 39.36C220.66 39.37 220.75 39.38 220.77 39.38C221.1 39.4 221.39 39.32 221.63 39.16C221.88 38.99 222.1 38.72 222.28 38.35C222.31 38.3 222.44 38.06 222.66 37.63L221.57 31.42L222.68 31.42L223.38 36.16L225.64 31.42ZM229.88 35.12C229.77 35.09 228.89 34.83 228.78 34.8C227.85 34.48 227.4 33.94 227.43 33.2C227.46 32.64 227.71 32.19 228.19 31.83C228.68 31.47 229.25 31.3 229.9 31.3C230.54 31.31 231.06 31.5 231.46 31.87C231.86 32.23 232.05 32.7 232.04 33.29C231.93 33.29 231.09 33.29 230.98 33.28C230.99 32.97 230.89 32.71 230.68 32.51C230.48 32.31 230.2 32.21 229.86 32.2C229.49 32.19 229.18 32.28 228.91 32.47C228.66 32.65 228.52 32.88 228.48 33.16C228.43 33.53 228.66 33.8 229.16 33.96C229.21 33.98 229.64 34.1 229.69 34.11C230.42 34.3 230.93 34.54 231.24 34.84C231.54 35.14 231.68 35.52 231.66 35.96C231.63 36.36 231.51 36.7 231.27 36.99C231.04 37.29 230.72 37.51 230.33 37.67C229.94 37.82 229.53 37.89 229.09 37.88C228.41 37.87 227.86 37.68 227.42 37.29C226.98 36.91 226.77 36.41 226.79 35.8C226.9 35.8 227.74 35.81 227.85 35.81C227.85 36.17 227.96 36.45 228.19 36.67C228.42 36.88 228.73 36.99 229.12 36.99C229.51 37 229.84 36.92 230.12 36.75C230.4 36.58 230.56 36.34 230.6 36.04C230.66 35.61 230.42 35.3 229.88 35.12ZM235.27 31.42L236.42 31.42L236.27 32.26L235.13 32.26C234.73 34.63 234.51 35.94 234.46 36.2C234.45 36.3 234.45 36.4 234.46 36.48C234.49 36.79 234.65 36.94 234.96 36.94C235.09 36.94 235.26 36.92 235.47 36.88C235.46 36.97 235.4 37.68 235.39 37.77C235.14 37.84 234.88 37.87 234.62 37.87C234.19 37.86 233.88 37.71 233.67 37.41C233.46 37.11 233.37 36.7 233.42 36.19C233.46 35.92 233.68 34.61 234.07 32.26L232.95 32.26L233.09 31.42L234.21 31.42L234.48 29.89L235.54 29.89L235.27 31.42ZM237.49 37.01C237.05 36.44 236.86 35.71 236.93 34.83C236.93 34.81 236.96 34.6 236.96 34.58C237.03 33.95 237.21 33.38 237.52 32.86C237.83 32.34 238.2 31.95 238.64 31.69C239.08 31.42 239.56 31.29 240.07 31.3C240.72 31.32 241.24 31.54 241.61 31.95C241.98 32.37 242.18 32.94 242.22 33.65C242.23 33.91 242.22 34.16 242.19 34.42C242.19 34.45 242.17 34.61 242.13 34.9C239.64 34.9 238.26 34.9 237.99 34.9C237.92 35.48 238.01 35.96 238.27 36.37C238.53 36.77 238.92 36.98 239.43 36.99C240.06 37.01 240.64 36.73 241.17 36.15C241.23 36.2 241.72 36.61 241.78 36.67C241.51 37.05 241.17 37.35 240.75 37.57C240.33 37.78 239.86 37.89 239.35 37.88C238.56 37.86 237.94 37.57 237.49 37.01ZM238.87 32.63C238.55 32.94 238.29 33.4 238.1 34.01C238.3 34.01 239.33 34.01 241.18 34.02C241.19 33.96 241.2 33.93 241.2 33.92C241.27 33.43 241.18 33.02 240.96 32.7C240.74 32.37 240.43 32.2 240.02 32.19C239.58 32.18 239.2 32.33 238.87 32.63ZM244.78 32.12C245.31 31.56 245.96 31.29 246.71 31.3C247.11 31.31 247.45 31.4 247.73 31.58C248.01 31.76 248.2 32 248.31 32.32C248.9 31.63 249.6 31.29 250.41 31.3C251.05 31.32 251.51 31.53 251.81 31.94C252.11 32.35 252.23 32.9 252.15 33.6C252.1 33.87 251.87 35.26 251.45 37.76L250.4 37.76C250.81 35.25 251.04 33.86 251.09 33.58C251.11 33.38 251.11 33.19 251.09 33.03C251.01 32.5 250.67 32.22 250.04 32.21C249.66 32.2 249.31 32.33 248.99 32.58C248.68 32.82 248.48 33.15 248.39 33.55C248.34 33.83 248.1 35.23 247.67 37.76L246.6 37.76C247.02 35.26 247.26 33.87 247.3 33.59C247.35 33.16 247.29 32.82 247.1 32.59C246.92 32.35 246.64 32.23 246.26 32.22C245.6 32.21 245.07 32.51 244.68 33.13C244.63 33.44 244.36 34.98 243.88 37.76L242.82 37.76L243.92 31.42L244.92 31.42C244.84 31.84 244.79 32.08 244.78 32.12ZM82.98 45.74C83.36 46.02 83.64 46.41 83.82 46.9C84 47.4 84.07 47.94 84.01 48.52C84.01 48.53 84 48.64 84 48.65C83.92 49.27 83.74 49.83 83.45 50.33C83.15 50.82 82.77 51.21 82.31 51.49C81.84 51.76 81.33 51.89 80.78 51.88C80.25 51.87 79.8 51.73 79.41 51.44C79.04 51.16 78.76 50.78 78.58 50.3C78.41 49.81 78.34 49.28 78.39 48.7C78.45 48.04 78.63 47.45 78.93 46.93C79.22 46.4 79.61 46 80.07 45.71C80.54 45.43 81.05 45.29 81.62 45.3C82.15 45.31 82.6 45.46 82.98 45.74ZM79.46 49.47C79.5 49.93 79.64 50.3 79.87 50.57C80.11 50.85 80.43 50.99 80.82 51C81.17 51.01 81.5 50.93 81.79 50.74C82.09 50.55 82.34 50.27 82.54 49.9C82.75 49.52 82.88 49.11 82.94 48.65C82.97 48.29 82.97 47.99 82.95 47.74C82.91 47.27 82.76 46.9 82.53 46.62C82.29 46.35 81.97 46.2 81.58 46.19C81.03 46.18 80.56 46.39 80.18 46.83C79.8 47.27 79.56 47.85 79.47 48.57C79.47 48.58 79.47 48.62 79.46 48.7C79.44 49.04 79.44 49.29 79.46 49.47ZM86.28 46.26L85.3 46.26L85.44 45.42L86.42 45.42C86.48 44.97 86.51 44.72 86.52 44.67C86.62 44.03 86.87 43.54 87.26 43.18C87.67 42.8 88.19 42.62 88.83 42.63C89.03 42.63 89.28 42.66 89.59 42.73C89.57 42.81 89.47 43.52 89.46 43.61C89.27 43.57 89.08 43.55 88.89 43.54C88.52 43.54 88.22 43.66 87.99 43.89C87.77 44.11 87.62 44.42 87.57 44.79C87.56 44.84 87.53 45.05 87.48 45.42L88.79 45.42L88.64 46.26L87.33 46.26L86.37 51.76L85.31 51.76L86.28 46.26ZM95.83 48.19C95.76 48.17 95.42 48.05 94.81 47.82C94.61 47.74 94.5 47.69 94.47 47.68C93.33 47.16 92.8 46.43 92.87 45.49C92.91 45.01 93.07 44.6 93.36 44.23C93.64 43.87 94.02 43.59 94.49 43.39C94.96 43.19 95.46 43.1 96 43.11C96.51 43.12 96.97 43.24 97.37 43.46C97.78 43.68 98.09 43.98 98.3 44.38C98.51 44.77 98.6 45.21 98.58 45.7C98.47 45.7 97.58 45.7 97.47 45.7C97.51 45.17 97.39 44.77 97.12 44.48C96.85 44.19 96.46 44.05 95.95 44.04C95.41 44.03 94.97 44.16 94.61 44.41C94.25 44.67 94.04 45.02 93.99 45.47C93.91 46.05 94.27 46.49 95.06 46.79C95.12 46.81 95.41 46.92 95.93 47.1C96.2 47.22 96.34 47.28 96.37 47.29C97.47 47.8 97.98 48.55 97.9 49.55C97.86 50.03 97.7 50.45 97.41 50.8C97.13 51.15 96.75 51.42 96.27 51.61C95.79 51.8 95.27 51.89 94.71 51.88C94.18 51.87 93.69 51.76 93.24 51.54C92.8 51.31 92.46 51 92.23 50.61C92 50.22 91.9 49.78 91.93 49.28C92.04 49.28 92.92 49.29 93.03 49.29C93 49.8 93.13 50.2 93.44 50.5C93.75 50.8 94.19 50.95 94.76 50.96C95.33 50.97 95.79 50.84 96.16 50.59C96.53 50.34 96.74 49.99 96.8 49.56C96.88 48.94 96.56 48.48 95.83 48.19ZM100.95 51.88C100.34 51.86 99.89 51.65 99.6 51.23C99.31 50.81 99.2 50.24 99.28 49.52C99.32 49.24 99.55 47.88 99.96 45.42L101.02 45.42C100.61 47.89 100.38 49.26 100.33 49.53C100.31 49.71 100.31 49.87 100.32 50.04C100.34 50.32 100.42 50.54 100.57 50.7C100.72 50.86 100.93 50.95 101.19 50.96C101.95 50.98 102.54 50.68 102.95 50.04C103 49.73 103.27 48.19 103.75 45.42L104.81 45.42L103.71 51.76L102.7 51.76L102.84 51.13C102.09 51.64 101.46 51.89 100.95 51.88ZM108.74 46.34C108.06 46.34 107.53 46.64 107.13 47.26C107.08 47.56 106.82 49.06 106.36 51.76L105.29 51.76L106.4 45.42L107.42 45.42C107.33 45.86 107.27 46.1 107.26 46.15C107.71 45.56 108.24 45.28 108.85 45.29C108.98 45.29 109.15 45.32 109.36 45.38C109.35 45.45 109.31 45.78 109.24 46.39C108.94 46.36 108.77 46.34 108.74 46.34ZM112.89 51.43C112.9 51.39 112.91 51.13 112.91 51.09C112.33 51.63 111.71 51.89 111.06 51.88C110.5 51.87 110.05 51.69 109.7 51.35C109.35 51 109.19 50.57 109.22 50.05C109.26 49.38 109.55 48.86 110.1 48.48C110.65 48.1 111.37 47.91 112.27 47.91C112.34 47.91 112.71 47.91 113.37 47.92C113.42 47.62 113.44 47.45 113.45 47.41C113.48 47.03 113.41 46.74 113.22 46.52C113.04 46.29 112.76 46.18 112.39 46.17C112.03 46.16 111.7 46.25 111.42 46.44C111.15 46.62 110.98 46.87 110.91 47.17C110.81 47.17 109.95 47.18 109.85 47.18C109.88 46.81 110.03 46.48 110.28 46.19C110.54 45.91 110.86 45.68 111.26 45.53C111.66 45.37 112.07 45.29 112.5 45.3C113.16 45.31 113.67 45.52 114.04 45.9C114.4 46.28 114.56 46.79 114.5 47.43C114.47 47.64 114.29 48.69 113.98 50.57C113.97 50.84 113.96 50.99 113.95 51.02C113.95 51.24 113.97 51.45 114.03 51.66C114.02 51.67 114.02 51.7 114.01 51.76L112.94 51.76C112.91 51.61 112.89 51.5 112.89 51.43ZM112.23 50.7C112.54 50.53 112.8 50.29 113.02 49.99C113.03 49.9 113.11 49.47 113.25 48.69C112.76 48.68 112.5 48.68 112.44 48.68C111.78 48.68 111.26 48.78 110.91 49C110.55 49.21 110.35 49.51 110.3 49.89C110.27 50.19 110.34 50.44 110.51 50.64C110.69 50.83 110.94 50.93 111.27 50.94C111.61 50.95 111.93 50.87 112.23 50.7ZM120.68 50.37C120.4 50.89 120.06 51.28 119.67 51.53C119.27 51.78 118.84 51.9 118.36 51.88C117.59 51.87 117.02 51.58 116.65 51.02C116.64 51.07 116.56 51.32 116.43 51.76L115.45 51.76L117.02 42.76L118.08 42.76C117.7 44.78 117.48 45.9 117.44 46.12C117.95 45.56 118.57 45.29 119.29 45.3C119.9 45.32 120.38 45.54 120.72 45.98C121.06 46.41 121.24 47.01 121.26 47.77C121.26 48.02 121.25 48.26 121.22 48.5C121.22 48.51 121.22 48.55 121.21 48.62C121.04 49.44 120.86 50.03 120.68 50.37ZM119.91 46.7C119.71 46.39 119.4 46.23 118.98 46.22C118.32 46.2 117.76 46.53 117.31 47.21C117.26 47.49 116.88 49.7 116.83 49.97C117.07 50.62 117.51 50.95 118.15 50.96C118.56 50.98 118.93 50.86 119.23 50.6C119.55 50.33 119.78 49.97 119.94 49.5C120.1 49.03 120.19 48.53 120.2 48.01C120.21 47.44 120.12 47 119.91 46.7ZM125.89 51.43C125.89 51.39 125.91 51.13 125.91 51.09C125.33 51.63 124.71 51.89 124.06 51.88C123.5 51.87 123.04 51.69 122.69 51.35C122.34 51 122.19 50.57 122.22 50.05C122.26 49.38 122.55 48.86 123.1 48.48C123.65 48.1 124.37 47.91 125.26 47.91C125.34 47.91 125.71 47.91 126.37 47.92C126.41 47.62 126.44 47.45 126.44 47.41C126.48 47.03 126.41 46.74 126.22 46.52C126.04 46.29 125.76 46.18 125.39 46.17C125.02 46.16 124.7 46.25 124.42 46.44C124.14 46.62 123.97 46.87 123.91 47.17C123.8 47.17 122.95 47.18 122.84 47.18C122.88 46.81 123.02 46.48 123.28 46.19C123.53 45.91 123.86 45.68 124.26 45.53C124.65 45.37 125.07 45.29 125.49 45.3C126.15 45.31 126.67 45.52 127.03 45.9C127.4 46.28 127.55 46.79 127.5 47.43C127.46 47.64 127.29 48.69 126.98 50.57C126.96 50.84 126.95 50.99 126.95 51.02C126.94 51.24 126.97 51.45 127.02 51.66C127.02 51.67 127.02 51.7 127.01 51.76L125.93 51.76C125.9 51.61 125.89 51.5 125.89 51.43ZM125.23 50.7C125.53 50.53 125.79 50.29 126.01 49.99C126.03 49.9 126.1 49.47 126.24 48.69C125.76 48.68 125.49 48.68 125.44 48.68C124.77 48.68 124.26 48.78 123.9 49C123.55 49.21 123.35 49.51 123.3 49.89C123.27 50.19 123.33 50.44 123.51 50.64C123.68 50.83 123.94 50.93 124.27 50.94C124.61 50.95 124.93 50.87 125.23 50.7ZM132.89 45.42L134.06 45.42C131.8 49.86 130.55 52.32 130.3 52.82C129.77 53.84 129.1 54.35 128.28 54.34C128.14 54.34 127.92 54.3 127.64 54.23C127.65 54.18 127.68 53.88 127.74 53.36C127.9 53.37 127.99 53.38 128.01 53.38C128.35 53.4 128.64 53.32 128.88 53.16C129.12 52.99 129.34 52.72 129.53 52.35C129.55 52.3 129.68 52.06 129.91 51.63L128.81 45.42L129.92 45.42L130.63 50.16L132.89 45.42ZM137.67 51.43C137.67 51.39 137.68 51.13 137.69 51.09C137.1 51.63 136.49 51.89 135.83 51.88C135.28 51.87 134.82 51.69 134.47 51.35C134.12 51 133.96 50.57 133.99 50.05C134.03 49.38 134.33 48.86 134.87 48.48C135.42 48.1 136.15 47.91 137.04 47.91C137.11 47.91 137.48 47.91 138.15 47.92C138.19 47.62 138.21 47.45 138.22 47.41C138.26 47.03 138.18 46.74 138 46.52C137.81 46.29 137.54 46.18 137.16 46.17C136.8 46.16 136.48 46.25 136.2 46.44C135.92 46.62 135.75 46.87 135.69 47.17C135.58 47.17 134.73 47.18 134.62 47.18C134.66 46.81 134.8 46.48 135.05 46.19C135.31 45.91 135.63 45.68 136.03 45.53C136.43 45.37 136.84 45.29 137.27 45.3C137.93 45.31 138.44 45.52 138.81 45.9C139.18 46.28 139.33 46.79 139.27 47.43C139.24 47.64 139.07 48.69 138.76 50.57C138.74 50.84 138.73 50.99 138.73 51.02C138.72 51.24 138.74 51.45 138.8 51.66C138.8 51.67 138.79 51.7 138.79 51.76L137.71 51.76C137.68 51.61 137.67 51.5 137.67 51.43ZM137.01 50.7C137.31 50.53 137.57 50.29 137.79 49.99C137.81 49.9 137.88 49.47 138.02 48.69C137.54 48.68 137.27 48.68 137.22 48.68C136.55 48.68 136.04 48.78 135.68 49C135.33 49.21 135.12 49.51 135.08 49.89C135.04 50.19 135.11 50.44 135.28 50.64C135.46 50.83 135.71 50.93 136.04 50.94C136.38 50.95 136.7 50.87 137.01 50.7ZM147.7 50.18L151.61 43.23L153.06 43.23L151.58 51.76L150.48 51.76L151.07 48.39L151.77 44.95L147.9 51.76L147.05 51.76L145.53 44.82L145 48.5L144.44 51.76L143.33 51.76L144.82 43.23L146.2 43.23L147.7 50.18ZM155.52 51.88C154.92 51.86 154.47 51.65 154.17 51.23C153.88 50.81 153.78 50.24 153.85 49.52C153.9 49.24 154.12 47.88 154.53 45.42L155.59 45.42C155.18 47.89 154.95 49.26 154.91 49.53C154.89 49.71 154.88 49.87 154.89 50.04C154.91 50.32 155 50.54 155.15 50.7C155.29 50.86 155.5 50.95 155.77 50.96C156.53 50.98 157.11 50.68 157.53 50.04C157.58 49.73 157.84 48.19 158.32 45.42L159.38 45.42L158.28 51.76L157.28 51.76L157.41 51.13C156.66 51.64 156.03 51.89 155.52 51.88ZM163.07 49.12C162.96 49.09 162.08 48.83 161.97 48.8C161.04 48.48 160.59 47.94 160.62 47.2C160.65 46.64 160.91 46.19 161.39 45.83C161.87 45.47 162.44 45.3 163.09 45.3C163.73 45.31 164.25 45.5 164.65 45.87C165.05 46.23 165.25 46.7 165.23 47.29C165.12 47.29 164.28 47.29 164.18 47.28C164.18 46.97 164.08 46.71 163.88 46.51C163.67 46.31 163.39 46.21 163.05 46.2C162.68 46.19 162.37 46.28 162.1 46.47C161.86 46.65 161.71 46.88 161.67 47.16C161.62 47.53 161.85 47.8 162.35 47.96C162.4 47.98 162.83 48.1 162.88 48.11C163.61 48.3 164.12 48.54 164.43 48.84C164.73 49.14 164.87 49.52 164.85 49.96C164.83 50.36 164.7 50.7 164.46 50.99C164.23 51.29 163.92 51.51 163.53 51.67C163.13 51.82 162.72 51.89 162.28 51.88C161.61 51.87 161.05 51.68 160.61 51.29C160.18 50.91 159.96 50.41 159.98 49.8C160.09 49.8 160.93 49.81 161.04 49.81C161.04 50.17 161.15 50.45 161.38 50.67C161.61 50.88 161.92 50.99 162.31 50.99C162.7 51 163.03 50.92 163.31 50.75C163.6 50.58 163.76 50.34 163.79 50.04C163.85 49.61 163.61 49.3 163.07 49.12ZM166.82 51.01C166.37 50.44 166.19 49.71 166.26 48.83C166.26 48.81 166.28 48.6 166.29 48.58C166.35 47.95 166.54 47.38 166.84 46.86C167.15 46.34 167.53 45.95 167.97 45.69C168.41 45.42 168.88 45.29 169.4 45.3C170.05 45.32 170.56 45.54 170.93 45.95C171.3 46.37 171.51 46.94 171.54 47.65C171.55 47.91 171.54 48.16 171.52 48.42C171.51 48.45 171.49 48.61 171.45 48.9C168.97 48.9 167.59 48.9 167.31 48.9C167.24 49.48 167.33 49.96 167.59 50.37C167.85 50.77 168.24 50.98 168.76 50.99C169.38 51.01 169.96 50.73 170.49 50.15C170.55 50.2 171.04 50.61 171.1 50.67C170.84 51.05 170.49 51.35 170.07 51.57C169.65 51.78 169.19 51.89 168.67 51.88C167.88 51.86 167.26 51.57 166.82 51.01ZM168.2 46.63C167.87 46.94 167.61 47.4 167.42 48.01C167.63 48.01 168.65 48.01 170.5 48.02C170.52 47.96 170.53 47.93 170.53 47.92C170.59 47.43 170.51 47.02 170.29 46.7C170.07 46.37 169.75 46.2 169.34 46.19C168.91 46.18 168.52 46.33 168.2 46.63ZM174.28 51.88C173.68 51.86 173.23 51.65 172.94 51.23C172.65 50.81 172.54 50.24 172.61 49.52C172.66 49.24 172.89 47.88 173.29 45.42L174.35 45.42C173.94 47.89 173.71 49.26 173.67 49.53C173.65 49.71 173.64 49.87 173.66 50.04C173.68 50.32 173.76 50.54 173.91 50.7C174.06 50.86 174.26 50.95 174.53 50.96C175.29 50.98 175.87 50.68 176.29 50.04C176.34 49.73 176.61 48.19 177.08 45.42L178.14 45.42L177.04 51.76L176.04 51.76L176.18 51.13C175.42 51.64 174.79 51.89 174.28 51.88ZM180.59 46.12C181.12 45.56 181.76 45.29 182.52 45.3C182.92 45.31 183.26 45.4 183.53 45.58C183.82 45.76 184.01 46 184.11 46.32C184.71 45.63 185.41 45.29 186.22 45.3C186.85 45.32 187.32 45.53 187.62 45.94C187.92 46.35 188.03 46.9 187.95 47.6C187.91 47.87 187.67 49.26 187.26 51.76L186.2 51.76C186.62 49.25 186.85 47.86 186.89 47.58C186.92 47.38 186.92 47.19 186.89 47.03C186.82 46.5 186.47 46.22 185.85 46.21C185.46 46.2 185.11 46.33 184.79 46.58C184.48 46.82 184.28 47.15 184.19 47.55C184.14 47.83 183.9 49.23 183.47 51.76L182.4 51.76C182.83 49.26 183.06 47.87 183.11 47.59C183.16 47.16 183.09 46.82 182.91 46.59C182.73 46.35 182.45 46.23 182.06 46.22C181.4 46.21 180.88 46.51 180.49 47.13C180.43 47.44 180.17 48.98 179.68 51.76L178.62 51.76L179.73 45.42L180.72 45.42C180.64 45.84 180.6 46.08 180.59 46.12Z" id="d2HY6Q0OQ9"></path><path d="M482.64 404L434.72 404L434.64 404L402.64 372L461.36 372L482.64 404Z" id="bR2F6zV5c"></path><path d="M482.64 404L504 436L433.2 436L417.92 404L482.64 404Z" id="jaoLz4tOu"></path></defs><g><g><g><use xlink:href="#boLZcj1kY" opacity="1" fill="#a0d468" fill-opacity="1"></use><g><use xlink:href="#boLZcj1kY" opacity="1" fill-opacity="0" stroke="#000000" stroke-width="1" stroke-opacity="0"></use></g></g><g><use xlink:href="#c29kfROtQX" opacity="1" fill="#5d9cec" fill-opacity="1"></use><g><use xlink:href="#c29kfROtQX" opacity="1" fill-opacity="0" stroke="#000000" stroke-width="1" stroke-opacity="0"></use></g></g><g><use xlink:href="#fCdc9cAUG" opacity="1" fill="#8cc152" fill-opacity="1"></use><g><use xlink:href="#fCdc9cAUG" opacity="1" fill-opacity="0" stroke="#000000" stroke-width="1" stroke-opacity="0"></use></g></g><g><use xlink:href="#b10FME0LNg" opacity="1" fill="#8cc152" fill-opacity="1"></use><g><use xlink:href="#b10FME0LNg" opacity="1" fill-opacity="0" stroke="#000000" stroke-width="1" stroke-opacity="0"></use></g></g><g><use xlink:href="#c1fxwfqnuI" opacity="1" fill="#e6e9ed" fill-opacity="1"></use><g><use xlink:href="#c1fxwfqnuI" opacity="1" fill-opacity="0" stroke="#000000" stroke-width="1" stroke-opacity="0"></use></g></g><g><use xlink:href="#oPmvGl2Pd" opacity="1" fill="#e6e9ed" fill-opacity="1"></use><g><use xlink:href="#oPmvGl2Pd" opacity="1" fill-opacity="0" stroke="#000000" stroke-width="1" stroke-opacity="0"></use></g></g><g><use xlink:href="#cqLhyvyei" opacity="1" fill="#e6e9ed" fill-opacity="1"></use><g><use xlink:href="#cqLhyvyei" opacity="1" fill-opacity="0" stroke="#000000" stroke-width="1" stroke-opacity="0"></use></g></g><g><use xlink:href="#a21VOdb6dO" opacity="1" fill="#8cc152" fill-opacity="1"></use><g><use xlink:href="#a21VOdb6dO" opacity="1" fill-opacity="0" stroke="#000000" stroke-width="1" stroke-opacity="0"></use></g></g><g><use xlink:href="#aXPTDVHDu" opacity="1" fill="#81b53e" fill-opacity="1"></use><g><use xlink:href="#aXPTDVHDu" opacity="1" fill-opacity="0" stroke="#000000" stroke-width="1" stroke-opacity="0"></use></g></g><g><use xlink:href="#a91Dql4vM" opacity="1" fill="#e6e9ed" fill-opacity="1"></use><g><use xlink:href="#a91Dql4vM" opacity="1" fill-opacity="0" stroke="#000000" stroke-width="1" stroke-opacity="0"></use></g></g><g><use xlink:href="#b14eZ0r36w" opacity="1" fill="#ccd1d9" fill-opacity="1"></use><g><use xlink:href="#b14eZ0r36w" opacity="1" fill-opacity="0" stroke="#000000" stroke-width="1" stroke-opacity="0"></use></g></g><g><use xlink:href="#aMRa2vQvc" opacity="1" fill="#ccd1d9" fill-opacity="1"></use><g><use xlink:href="#aMRa2vQvc" opacity="1" fill-opacity="0" stroke="#000000" stroke-width="1" stroke-opacity="0"></use></g></g><g><use xlink:href="#dUsOQhYgK" opacity="1" fill="#ccd1d9" fill-opacity="1"></use><g><use xlink:href="#dUsOQhYgK" opacity="1" fill-opacity="0" stroke="#000000" stroke-width="1" stroke-opacity="0"></use></g></g><g><use xlink:href="#a3SfSjMGNb" opacity="1" fill="#ccd1d9" fill-opacity="1"></use><g><use xlink:href="#a3SfSjMGNb" opacity="1" fill-opacity="0" stroke="#000000" stroke-width="1" stroke-opacity="0"></use></g></g><g><use xlink:href="#a8U9XoyMwM" opacity="1" fill="#ccd1d9" fill-opacity="1"></use><g><use xlink:href="#a8U9XoyMwM" opacity="1" fill-opacity="0" stroke="#000000" stroke-width="1" stroke-opacity="0"></use></g></g><g><use xlink:href="#e2FXvCPkXL" opacity="1" fill="#e6e9ed" fill-opacity="1"></use><g><use xlink:href="#e2FXvCPkXL" opacity="1" fill-opacity="0" stroke="#000000" stroke-width="1" stroke-opacity="0"></use></g></g><g><use xlink:href="#b2nsoK1lL" opacity="1" fill="#e6e9ed" fill-opacity="1"></use><g><use xlink:href="#b2nsoK1lL" opacity="1" fill-opacity="0" stroke="#000000" stroke-width="1" stroke-opacity="0"></use></g></g><g><use xlink:href="#a67H8HBd92" opacity="1" fill="#e6e9ed" fill-opacity="1"></use><g><use xlink:href="#a67H8HBd92" opacity="1" fill-opacity="0" stroke="#000000" stroke-width="1" stroke-opacity="0"></use></g></g><g><use xlink:href="#ei3JqzXXt" opacity="1" fill="#000000" fill-opacity="1"></use><g><use xlink:href="#ei3JqzXXt" opacity="1" fill-opacity="0" stroke="#000000" stroke-width="1" stroke-opacity="0"></use></g></g><g><use xlink:href="#d2HY6Q0OQ9" opacity="1" fill="#000000" fill-opacity="0.5"></use><g><use xlink:href="#d2HY6Q0OQ9" opacity="1" fill-opacity="0" stroke="#000000" stroke-width="1" stroke-opacity="0"></use></g></g><g><use xlink:href="#bR2F6zV5c" opacity="1" fill="#8cc152" fill-opacity="1"></use><g><use xlink:href="#bR2F6zV5c" opacity="1" fill-opacity="0" stroke="#000000" stroke-width="1" stroke-opacity="0"></use></g></g><g><use xlink:href="#jaoLz4tOu" opacity="1" fill="#e6e9ed" fill-opacity="1"></use><g><use xlink:href="#jaoLz4tOu" opacity="1" fill-opacity="0" stroke="#000000" stroke-width="1" stroke-opacity="0"></use></g></g></g></g></svg>