<?xml version="1.0" encoding="UTF-8" standalone="no"?>
<!DOCTYPE svg PUBLIC "-//W3C//DTD SVG 1.1//EN" "http://www.w3.org/Graphics/SVG/1.1/DTD/svg11.dtd">
<svg version="1.1" xmlns="http://www.w3.org/2000/svg" xmlns:xlink="http://www.w3.org/1999/xlink" preserveAspectRatio="xMidYMid meet" viewBox="0 0 25 41" width="25" height="41"><defs><path d="M0 14.35C0 25.11 12.5 41 12.5 41C12.5 41 25 25.11 25 14.35C25 6.43 19.4 0 12.5 0C5.6 0 0 6.43 0 14.35ZM8.04 14.35C8.04 11.52 10.04 9.23 12.5 9.23C14.96 9.23 16.96 11.52 16.96 14.35C16.96 17.18 14.96 19.48 12.5 19.48C10.04 19.48 8.04 17.18 8.04 14.35Z" id="eaM0jUm74"></path><path d="M17.96 14.32C17.96 17.66 15.56 20.38 12.61 20.38C9.65 20.38 7.25 17.66 7.25 14.32C7.25 10.97 9.65 8.26 12.61 8.26C15.56 8.26 17.96 10.97 17.96 14.32Z" id="a5MtVl1ICE"></path><path d="M15.39 21.08C15.28 21.03 14.73 20.74 13.74 20.21C13.74 20.18 13.74 20.17 13.74 20.16C12.96 20.62 12.04 20.62 11.26 20.16C11.26 20.17 11.26 20.18 11.26 20.21C10.27 20.74 9.72 21.03 9.61 21.08C9.16 21.36 8.87 21.89 8.83 22.5C8.83 22.65 8.83 23.39 8.83 24.72L16.17 24.72C16.17 23.39 16.17 22.65 16.17 22.5C16.17 22.43 16.16 22.36 16.15 22.3C16.06 21.77 15.78 21.32 15.39 21.08Z" id="a6ATDKVjy"></path><path d="M11.85 20.41C11.65 20.36 11.45 20.27 11.26 20.16C11.26 20.17 11.26 20.18 11.26 20.21C10.27 20.74 9.72 21.03 9.61 21.08C9.16 21.36 8.87 21.89 8.83 22.5C8.83 22.65 8.83 23.39 8.83 24.72L9.8 24.72C9.8 23.39 9.8 22.65 9.8 22.5C9.84 21.89 10.14 21.36 10.58 21.08C10.83 20.95 11.72 20.48 11.85 20.41Z" id="a3BsiPfe4z"></path><path d="M15.07 14.04C15.07 14.06 15.07 14.08 15.07 14.08C15.07 14.08 12.78 14.58 11.24 12.89C10.93 12.92 10.61 12.93 10.29 12.91C10.29 13.06 10.23 14.22 10.22 14.36C10.22 14.4 10.19 14.43 10.16 14.43C10.16 14.43 10.15 14.42 10.14 14.42C10.11 14.4 9.86 14.24 9.82 14.22C9.76 14.17 9.71 14.09 9.71 14C9.71 13.87 9.71 12.9 9.71 12.78C9.71 10.95 10.91 9.46 12.39 9.46C13.87 9.46 15.07 10.95 15.07 12.78C15.07 12.94 15.07 13.37 15.07 14.04Z" id="b1CsKJMsaa"></path><path d="M12.71 9.49C12.61 9.47 12.5 9.46 12.39 9.46C10.91 9.46 9.71 10.95 9.71 12.78C9.71 12.9 9.71 13.87 9.71 14C9.71 14.09 9.76 14.17 9.82 14.22C9.86 14.24 10.11 14.4 10.14 14.42C10.17 14.44 10.2 14.42 10.21 14.39C10.22 14.38 10.22 14.37 10.22 14.36C10.22 14.36 10.08 11.74 11.14 10.43C11.56 9.91 12.12 9.58 12.71 9.49Z" id="b1y3vl7vWN"></path><path d="M13.74 20.16C12.96 20.62 12.04 20.62 11.26 20.16C11.26 20.03 11.26 18.99 11.26 18.86C12.05 19.34 12.98 19.3 13.74 18.75C13.74 19.04 13.74 20.02 13.74 20.16Z" id="d8KES3vZu"></path><path d="M11.9 19.13C11.68 19.08 11.46 18.98 11.26 18.86C11.26 18.99 11.26 20.03 11.26 20.16C11.74 20.44 12.29 20.55 12.82 20.48C12.5 20.44 12.19 20.33 11.9 20.16C11.9 19.96 11.9 19.23 11.9 19.13Z" id="dr6CeVdhq"></path><path d="M10.15 17.58C9.92 17.09 9.79 16.52 9.79 15.95C9.79 15.91 9.79 15.58 9.79 15.54C9.42 15.46 9.18 15.02 9.25 14.57C9.25 14.55 9.25 14.53 9.25 14.52C9.31 14.25 9.49 14.06 9.71 14.04C9.71 14.04 9.71 14.04 9.71 14.04C9.73 14.12 9.77 14.18 9.82 14.22C9.86 14.24 10.11 14.4 10.14 14.42C10.17 14.44 10.2 14.42 10.21 14.39C10.22 14.38 10.22 14.37 10.22 14.36C10.23 14.22 10.29 13.06 10.29 12.91C10.61 12.93 10.93 12.92 11.24 12.89C12.78 14.58 15.07 14.08 15.07 14.08C15.07 14.08 15.07 14.06 15.07 14.04C15.11 14.04 15.13 14.04 15.13 14.04C15.35 14.06 15.54 14.25 15.59 14.52C15.68 14.97 15.46 15.42 15.09 15.53C15.08 15.53 15.07 15.53 15.05 15.54C15.05 15.58 15.05 15.91 15.05 15.95C15.05 16.78 14.8 17.57 14.33 18.18C14.32 18.2 14.3 18.22 14.28 18.24C14.12 18.44 13.94 18.61 13.74 18.75C12.49 19.66 10.88 19.13 10.15 17.58Z" id="aPh8CYdd0"></path><path d="M10.44 15.95C10.44 15.91 10.44 15.58 10.44 15.54C10.07 15.46 9.83 15.02 9.89 14.57C9.9 14.55 9.9 14.53 9.9 14.52C9.92 14.45 9.94 14.38 9.98 14.31C9.96 14.3 9.84 14.23 9.82 14.22C9.77 14.18 9.73 14.12 9.71 14.04C9.71 14.04 9.71 14.04 9.71 14.04C9.49 14.06 9.31 14.25 9.25 14.52C9.17 14.97 9.39 15.42 9.75 15.53C9.76 15.53 9.78 15.53 9.79 15.54C9.79 15.58 9.79 15.91 9.79 15.95C9.79 17.74 10.97 19.19 12.42 19.2C12.42 19.2 12.42 19.2 12.42 19.2C12.53 19.19 12.64 19.19 12.74 19.17C12.45 19.13 12.17 19.02 11.9 18.86C11.01 18.31 10.44 17.18 10.44 15.95Z" id="afGJ17WJm"></path></defs><g><g><g><use xlink:href="#eaM0jUm74" opacity="1" fill="#ff4c04" fill-opacity="1"></use><g><use xlink:href="#eaM0jUm74" opacity="1" fill-opacity="0" stroke="#000000" stroke-width="1" stroke-opacity="0"></use></g></g><g><use xlink:href="#a5MtVl1ICE" opacity="1" fill="#f46338" fill-opacity="1"></use></g><g><use xlink:href="#a6ATDKVjy" opacity="1" fill="#ffffff" fill-opacity="1"></use><g><use xlink:href="#a6ATDKVjy" opacity="1" fill-opacity="0" stroke="#000000" stroke-width="1" stroke-opacity="0"></use></g></g><g><use xlink:href="#a3BsiPfe4z" opacity="1" fill="#ffffff" fill-opacity="1"></use><g><use xlink:href="#a3BsiPfe4z" opacity="1" fill-opacity="0" stroke="#000000" stroke-width="1" stroke-opacity="0"></use></g></g><g><use xlink:href="#b1CsKJMsaa" opacity="1" fill="#ffffff" fill-opacity="1"></use><g><use xlink:href="#b1CsKJMsaa" opacity="1" fill-opacity="0" stroke="#ffffff" stroke-width="1" stroke-opacity="0"></use></g></g><g><use xlink:href="#b1y3vl7vWN" opacity="1" fill="#ffffff" fill-opacity="1"></use><g><use xlink:href="#b1y3vl7vWN" opacity="1" fill-opacity="0" stroke="#000000" stroke-width="1" stroke-opacity="0"></use></g></g><g><use xlink:href="#d8KES3vZu" opacity="1" fill="#ffffff" fill-opacity="1"></use><g><use xlink:href="#d8KES3vZu" opacity="1" fill-opacity="0" stroke="#000000" stroke-width="1" stroke-opacity="0"></use></g></g><g><use xlink:href="#dr6CeVdhq" opacity="1" fill="#ffffff" fill-opacity="1"></use><g><use xlink:href="#dr6CeVdhq" opacity="1" fill-opacity="0" stroke="#000000" stroke-width="1" stroke-opacity="0"></use></g></g><g><use xlink:href="#aPh8CYdd0" opacity="1" fill="#ffffff" fill-opacity="1"></use><g><use xlink:href="#aPh8CYdd0" opacity="1" fill-opacity="0" stroke="#000000" stroke-width="1" stroke-opacity="0"></use></g></g><g><use xlink:href="#afGJ17WJm" opacity="1" fill="#ffffff" fill-opacity="1"></use><g><use xlink:href="#afGJ17WJm" opacity="1" fill-opacity="0" stroke="#000000" stroke-width="1" stroke-opacity="0"></use></g></g></g></g></svg>