<?xml version="1.0" encoding="UTF-8" standalone="no"?>
<!DOCTYPE svg PUBLIC "-//W3C//DTD SVG 1.1//EN" "http://www.w3.org/Graphics/SVG/1.1/DTD/svg11.dtd">
<svg version="1.1" xmlns="http://www.w3.org/2000/svg" xmlns:xlink="http://www.w3.org/1999/xlink" preserveAspectRatio="xMidYMid meet" viewBox="0 0 28 41" width="28" height="41"><defs><path d="M7.87 34C4.11 29.01 0 21.96 0 15C0 6.72 6.26 0 14 0C21.74 0 28 6.72 28 15C28 21.96 23.89 29.01 20.13 34C18.57 36.06 17.08 37.78 15.96 39C15.96 39 15.95 39 15.95 39C14.77 40.27 14 41 14 41C14 41 13.23 40.27 12.04 39C10.92 37.78 9.43 36.06 7.87 34Z" id="cHCGW8GF4"></path><path d="M7.47 21.01C7.47 20.21 7.47 13.8 7.47 13C7.47 12.45 7.89 12 8.41 12C8.92 12 9.34 12.45 9.34 13C9.34 13.8 9.34 20.21 9.34 21.01C9.34 21.56 8.92 22.01 8.41 22.01C7.89 22.01 7.47 21.56 7.47 21.01Z" id="f1JDs7apgD"></path><path d="M10.27 21.01C10.27 20.21 10.27 13.8 10.27 13C10.27 12.45 10.69 12 11.21 12C11.72 12 12.14 12.45 12.14 13C12.14 13.8 12.14 20.21 12.14 21.01C12.14 21.56 11.72 22.01 11.21 22.01C10.69 22.01 10.27 21.56 10.27 21.01Z" id="kN1venmQ1"></path><path d="M15.88 21.01C15.88 20.21 15.88 13.8 15.88 13C15.88 12.45 16.29 12 16.81 12C17.32 12 17.74 12.45 17.74 13C17.74 13.8 17.74 20.21 17.74 21.01C17.74 21.56 17.32 22.01 16.81 22.01C16.29 22.01 15.88 21.56 15.88 21.01Z" id="a3tAnoeGuY"></path><path d="M13.07 21.01C13.07 20.21 13.07 13.8 13.07 13C13.07 12.45 13.49 12 14.01 12C14.52 12 14.94 12.45 14.94 13C14.94 13.8 14.94 20.21 14.94 21.01C14.94 21.56 14.52 22.01 14.01 22.01C13.49 22.01 13.07 21.56 13.07 21.01Z" id="b1SGsgD0Pf"></path><path d="M18.68 21.01C18.68 20.21 18.68 13.8 18.68 13C18.68 12.45 19.09 12 19.61 12C20.12 12 20.54 12.45 20.54 13C20.54 13.8 20.54 20.21 20.54 21.01C20.54 21.56 20.12 22.01 19.61 22.01C19.09 22.01 18.68 21.56 18.68 21.01Z" id="f37bEdKRPq"></path><path d="M7.47 12C8.78 12 19.24 12 20.55 12C21.06 12 21.48 12.45 21.48 13C21.48 13.55 21.06 14 20.55 14C19.24 14 8.78 14 7.47 14C6.95 14 6.54 13.55 6.54 13C6.54 12.45 6.95 12 7.47 12Z" id="a4pV75gxnb"></path><path d="M21.48 11L21.48 13L19.61 13L16.81 13L14.01 13L11.21 13L8.41 13L6.54 13L6.54 11L14.02 7L21.48 11Z" id="d22Z6UWzbE"></path><path d="M20.54 21.01C21.06 21.01 21.48 21.46 21.48 22.01C21.48 22.11 21.48 22.91 21.48 23.01C21.48 23.56 21.06 24.01 20.54 24.01C19.24 24.01 8.78 24.01 7.48 24.01C6.96 24.01 6.54 23.56 6.54 23.01C6.54 22.91 6.54 22.11 6.54 22.01C6.54 21.46 6.96 21.01 7.48 21.01C7.6 21.01 8.22 21.01 9.34 21.01L10.28 21.01L12.14 21.01L13.08 21.01L14.94 21.01L15.88 21.01L17.74 21.01L18.68 21.01C19.67 21.01 20.29 21.01 20.54 21.01Z" id="a1PzGyquz9"></path></defs><g><g><g><use xlink:href="#cHCGW8GF4" opacity="1" fill="#0970f4" fill-opacity="1"></use><g><use xlink:href="#cHCGW8GF4" opacity="1" fill-opacity="0" stroke="#000000" stroke-width="1" stroke-opacity="0"></use></g></g><g><use xlink:href="#f1JDs7apgD" opacity="1" fill="#ccd1d9" fill-opacity="1"></use><g><use xlink:href="#f1JDs7apgD" opacity="1" fill-opacity="0" stroke="#000000" stroke-width="1" stroke-opacity="0"></use></g></g><g><use xlink:href="#kN1venmQ1" opacity="1" fill="#ccd1d9" fill-opacity="1"></use><g><use xlink:href="#kN1venmQ1" opacity="1" fill-opacity="0" stroke="#000000" stroke-width="1" stroke-opacity="0"></use></g></g><g><use xlink:href="#a3tAnoeGuY" opacity="1" fill="#ccd1d9" fill-opacity="1"></use><g><use xlink:href="#a3tAnoeGuY" opacity="1" fill-opacity="0" stroke="#000000" stroke-width="1" stroke-opacity="0"></use></g></g><g><use xlink:href="#b1SGsgD0Pf" opacity="1" fill="#ccd1d9" fill-opacity="1"></use><g><use xlink:href="#b1SGsgD0Pf" opacity="1" fill-opacity="0" stroke="#000000" stroke-width="1" stroke-opacity="0"></use></g></g><g><use xlink:href="#f37bEdKRPq" opacity="1" fill="#ccd1d9" fill-opacity="1"></use><g><use xlink:href="#f37bEdKRPq" opacity="1" fill-opacity="0" stroke="#000000" stroke-width="1" stroke-opacity="0"></use></g></g><g><use xlink:href="#a4pV75gxnb" opacity="1" fill="#e6e9ed" fill-opacity="1"></use><g><use xlink:href="#a4pV75gxnb" opacity="1" fill-opacity="0" stroke="#000000" stroke-width="1" stroke-opacity="0"></use></g></g><g><use xlink:href="#d22Z6UWzbE" opacity="1" fill="#e6e9ed" fill-opacity="1"></use><g><use xlink:href="#d22Z6UWzbE" opacity="1" fill-opacity="0" stroke="#000000" stroke-width="1" stroke-opacity="0"></use></g></g><g><use xlink:href="#a1PzGyquz9" opacity="1" fill="#e6e9ed" fill-opacity="1"></use><g><use xlink:href="#a1PzGyquz9" opacity="1" fill-opacity="0" stroke="#000000" stroke-width="1" stroke-opacity="0"></use></g></g></g></g></svg>