<?xml version="1.0" encoding="UTF-8" standalone="no"?>
<!DOCTYPE svg PUBLIC "-//W3C//DTD SVG 1.1//EN" "http://www.w3.org/Graphics/SVG/1.1/DTD/svg11.dtd">
<svg version="1.1" xmlns="http://www.w3.org/2000/svg" xmlns:xlink="http://www.w3.org/1999/xlink" preserveAspectRatio="xMidYMid meet" viewBox="0 0 28 41" width="28" height="41"><defs><path d="M7.87 34.05C4.11 29.05 0 21.99 0 15.02C0 6.73 6.26 0 14 0C21.74 0 28 6.73 28 15.02C28 21.99 23.89 29.05 20.13 34.05C18.57 36.11 17.08 37.84 15.96 39.06C15.96 39.06 15.95 39.06 15.95 39.06C14.77 40.33 14 41.06 14 41.06C14 41.06 13.23 40.33 12.04 39.06C10.92 37.84 9.43 36.11 7.87 34.05Z" id="crmKeZfP8"></path><path d="M7.47 21.04C7.47 20.24 7.47 13.82 7.47 13.02C7.47 12.47 7.89 12.02 8.41 12.02C8.92 12.02 9.34 12.47 9.34 13.02C9.34 13.82 9.34 20.24 9.34 21.04C9.34 21.59 8.92 22.04 8.41 22.04C7.89 22.04 7.47 21.59 7.47 21.04Z" id="aa1MubkrZq"></path><path d="M10.27 21.04C10.27 20.24 10.27 13.82 10.27 13.02C10.27 12.47 10.69 12.02 11.21 12.02C11.72 12.02 12.14 12.47 12.14 13.02C12.14 13.82 12.14 20.24 12.14 21.04C12.14 21.59 11.72 22.04 11.21 22.04C10.69 22.04 10.27 21.59 10.27 21.04Z" id="aClp5vFub"></path><path d="M15.88 21.04C15.88 20.24 15.88 13.82 15.88 13.02C15.88 12.47 16.29 12.02 16.81 12.02C17.32 12.02 17.74 12.47 17.74 13.02C17.74 13.82 17.74 20.24 17.74 21.04C17.74 21.59 17.32 22.04 16.81 22.04C16.29 22.04 15.88 21.59 15.88 21.04Z" id="b2MMgHE5Un"></path><path d="M13.07 21.04C13.07 20.24 13.07 13.82 13.07 13.02C13.07 12.47 13.49 12.02 14.01 12.02C14.52 12.02 14.94 12.47 14.94 13.02C14.94 13.82 14.94 20.24 14.94 21.04C14.94 21.59 14.52 22.04 14.01 22.04C13.49 22.04 13.07 21.59 13.07 21.04Z" id="ar068BqUC"></path><path d="M18.68 21.04C18.68 20.24 18.68 13.82 18.68 13.02C18.68 12.47 19.09 12.02 19.61 12.02C20.12 12.02 20.54 12.47 20.54 13.02C20.54 13.82 20.54 20.24 20.54 21.04C20.54 21.59 20.12 22.04 19.61 22.04C19.09 22.04 18.68 21.59 18.68 21.04Z" id="aF3vcozln"></path><path d="M7.47 12.02C8.78 12.02 19.24 12.02 20.55 12.02C21.06 12.02 21.48 12.47 21.48 13.02C21.48 13.57 21.06 14.02 20.55 14.02C19.24 14.02 8.78 14.02 7.47 14.02C6.95 14.02 6.54 13.57 6.54 13.02C6.54 12.47 6.95 12.02 7.47 12.02Z" id="g65Q7v6pS"></path><path d="M21.48 11.02L21.48 13.02L19.61 13.02L16.81 13.02L14.01 13.02L11.21 13.02L8.41 13.02L6.54 13.02L6.54 11.02L14.02 7.01L21.48 11.02Z" id="balKF6B7tP"></path><path d="M20.54 21.04C21.06 21.04 21.48 21.49 21.48 22.04C21.48 22.14 21.48 22.94 21.48 23.04C21.48 23.6 21.06 24.05 20.54 24.05C19.24 24.05 8.78 24.05 7.48 24.05C6.96 24.05 6.54 23.6 6.54 23.04C6.54 22.94 6.54 22.14 6.54 22.04C6.54 21.49 6.96 21.04 7.48 21.04C7.6 21.04 8.22 21.04 9.34 21.04L10.28 21.04L12.14 21.04L13.08 21.04L14.94 21.04L15.88 21.04L17.74 21.04L18.68 21.04C19.67 21.04 20.29 21.04 20.54 21.04Z" id="d1d0SnHP8"></path></defs><g><g><g><use xlink:href="#crmKeZfP8" opacity="1" fill="#e66e3b" fill-opacity="1"></use><g><use xlink:href="#crmKeZfP8" opacity="1" fill-opacity="0" stroke="#000000" stroke-width="1" stroke-opacity="0"></use></g></g><g><use xlink:href="#aa1MubkrZq" opacity="1" fill="#ccd1d9" fill-opacity="1"></use><g><use xlink:href="#aa1MubkrZq" opacity="1" fill-opacity="0" stroke="#000000" stroke-width="1" stroke-opacity="0"></use></g></g><g><use xlink:href="#aClp5vFub" opacity="1" fill="#ccd1d9" fill-opacity="1"></use><g><use xlink:href="#aClp5vFub" opacity="1" fill-opacity="0" stroke="#000000" stroke-width="1" stroke-opacity="0"></use></g></g><g><use xlink:href="#b2MMgHE5Un" opacity="1" fill="#ccd1d9" fill-opacity="1"></use><g><use xlink:href="#b2MMgHE5Un" opacity="1" fill-opacity="0" stroke="#000000" stroke-width="1" stroke-opacity="0"></use></g></g><g><use xlink:href="#ar068BqUC" opacity="1" fill="#ccd1d9" fill-opacity="1"></use><g><use xlink:href="#ar068BqUC" opacity="1" fill-opacity="0" stroke="#000000" stroke-width="1" stroke-opacity="0"></use></g></g><g><use xlink:href="#aF3vcozln" opacity="1" fill="#ccd1d9" fill-opacity="1"></use><g><use xlink:href="#aF3vcozln" opacity="1" fill-opacity="0" stroke="#000000" stroke-width="1" stroke-opacity="0"></use></g></g><g><use xlink:href="#g65Q7v6pS" opacity="1" fill="#e6e9ed" fill-opacity="1"></use><g><use xlink:href="#g65Q7v6pS" opacity="1" fill-opacity="0" stroke="#000000" stroke-width="1" stroke-opacity="0"></use></g></g><g><use xlink:href="#balKF6B7tP" opacity="1" fill="#e6e9ed" fill-opacity="1"></use><g><use xlink:href="#balKF6B7tP" opacity="1" fill-opacity="0" stroke="#000000" stroke-width="1" stroke-opacity="0"></use></g></g><g><use xlink:href="#d1d0SnHP8" opacity="1" fill="#e6e9ed" fill-opacity="1"></use><g><use xlink:href="#d1d0SnHP8" opacity="1" fill-opacity="0" stroke="#000000" stroke-width="1" stroke-opacity="0"></use></g></g></g></g></svg>